<svg xmlns="http://www.w3.org/2000/svg" viewBox="0 0 106 106"><defs><style>.cls-1{fill:#fff;}.cls-2{fill:#ffc868;}.cls-3{fill:#171c1f;}.cls-4{fill:#ff7575;}.cls-5{opacity:0.1;}.cls-6{opacity:0.25;}</style></defs><title>clock</title><g id="Clock"><g id="Fill"><circle class="cls-1" cx="53" cy="53" r="51"/></g><g id="Yellow"><circle class="cls-2" cx="53" cy="53" r="42"/></g><g id="Black"><path class="cls-3" d="M71.12,66.88h0L60.37,56.12A8,8,0,0,0,56,45.59V21a3,3,0,1,0-6,0V45.59a8,8,0,1,0,6.12,14.78L66.88,71.12a3,3,0,1,0,4.24-4.24Z"/></g><g id="White"><path class="cls-1" d="M54,51.28V21a1,1,0,0,0-2,0V51.28a2,2,0,1,0,2,0Z"/></g><g id="Red"><path class="cls-4" d="M69.71,68.29l-16-16a1,1,0,1,0-1.41,1.41h0l16,16h0a1,1,0,1,0,1.41-1.41Z"/></g><g id="Shadows" class="cls-5"><path d="M66.88,71.12,56.1,60.35A7.91,7.91,0,0,1,53,61a8,8,0,0,1-7.74-6,8,8,0,0,0,10.86,9.37L66.88,75.12A3,3,0,0,0,71.22,71a3,3,0,0,1-4.34.12ZM53,16A41,41,0,0,1,93.95,55c0-.66.05-1.33.05-2a41,41,0,0,0-82,0c0,.67,0,1.34.05,2A41,41,0,0,1,53,16Zm49,36A49,49,0,0,1,4,52c0,.33,0,.66,0,1a49,49,0,1,0,98,0C102,52.66,102,52.33,102,52Z"/></g><g id="Inner_Lines" data-name="Inner Lines" class="cls-6"><path class="cls-3" d="M23,52H21a1,1,0,1,0,0,2h2a1,1,0,1,0,0-2ZM37.87,24.79a1,1,0,0,0-1.73,1l1,1.73a1,1,0,0,0,1.73-1Zm.63,53.33a1,1,0,0,0-1.37.37l-1,1.73a1,1,0,1,0,1.73,1l1-1.73A1,1,0,0,0,38.5,78.11Zm-12-11-1.73,1a1,1,0,1,0,1,1.73l1.73-1a1,1,0,1,0-1-1.73Zm1-30-1.73-1a1,1,0,1,0-1,1.73l1.73,1a1,1,0,0,0,1-1.73Zm42-12.71a1,1,0,0,0-1.37.37l-1,1.73a1,1,0,0,0,1.73,1l1-1.73A1,1,0,0,0,69.5,24.42ZM53,82a1,1,0,0,0-1,1v2a1,1,0,1,0,2,0V83A1,1,0,0,0,53,82ZM80.21,36.13l-1.73,1a1,1,0,0,0,1,1.73l1.73-1a1,1,0,1,0-1-1.73ZM85,52H83a1,1,0,1,0,0,2h2a1,1,0,1,0,0-2ZM81.21,68.13l-1.73-1a1,1,0,1,0-1,1.73l1.73,1a1,1,0,1,0,1-1.73ZM68.87,78.48a1,1,0,1,0-1.73,1l1,1.73a1,1,0,1,0,1.73-1Z"/></g><g id="Outline"><path class="cls-3" d="M53,0a53,53,0,1,0,53,53A53,53,0,0,0,53,0Zm0,102a49,49,0,1,1,49-49A49,49,0,0,1,53,102Zm0-92A43,43,0,1,0,96,53,43,43,0,0,0,53,10Zm0,84A41,41,0,1,1,94,53,41,41,0,0,1,53,94Z"/></g></g></svg>