<?xml version="1.0" encoding="UTF-8"?>
<!DOCTYPE svg PUBLIC '-//W3C//DTD SVG 1.1//EN' 'http://www.w3.org/Graphics/SVG/1.1/DTD/svg11.dtd'>
<svg  width="620" height="620" viewBox="0 0 62 62" xmlns="http://www.w3.org/2000/svg" xmlns:xlink="http://www.w3.org/1999/xlink">
 <radialGradient id="c" cx="32.5" cy="29.5" r="26.5" gradientUnits="userSpaceOnUse">
  <stop stop-color="silver" offset="0"/>
  <stop stop-color="silver" offset=".88"/>
  <stop stop-color="silver" stop-opacity="0" offset="1"/>
 </radialGradient>
 <linearGradient id="a" x1="52.78" x2="22.01" y1="-13.24" y2="51.99" gradientUnits="userSpaceOnUse">
  <stop stop-color="#ffe1b8" offset="0"/>
  <stop stop-color="#ff8b00" offset="1"/>
 </linearGradient>
 <linearGradient id="e" x1="54.51" x2="9.55" y1="41.18" y2="16.25" xlink:href="#a">
  <stop stop-color="#f98433" offset="0"/>
  <stop stop-color="#e37b00" offset="1"/>
 </linearGradient>
 <linearGradient id="d" x1="52.78" x2="22.01" y1="-13.24" y2="51.99" xlink:href="#a"/>
 <radialGradient id="f" cx="61.83" cy="-600.17" r="53" gradientTransform="matrix(1 0 0 -1 0 -538)" gradientUnits="userSpaceOnUse">
  <stop stop-color="#f3843c" offset=".951"/>
  <stop stop-color="#f2673c" offset="1"/>
 </radialGradient>
 <clipPath id="g">
  <circle cx="61.63" cy="61.88" r="51.38"/>
 </clipPath>
 <linearGradient id="h" x1="61.63" x2="61.63" y1="-551.25" y2="-652.25" gradientTransform="matrix(1 0 0 -1 0 -538)" gradientUnits="userSpaceOnUse">
  <stop stop-color="#fff" offset="0"/>
  <stop stop-color="#e1f1ff" offset=".148"/>
  <stop stop-color="#d4ebff" offset=".236"/>
  <stop stop-color="#e3f2ff" offset=".35"/>
  <stop stop-color="#f3f9ff" offset=".526"/>
  <stop stop-color="#fcfeff" offset=".726"/>
  <stop stop-color="#fff" offset="1"/>
 </linearGradient>
 <clipPath id="i">
  <circle cx="61.63" cy="61.88" r="51.38"/>
 </clipPath>
 <linearGradient id="j" x1="10.25" x2="107.83" y1="63.88" y2="63.88" gradientUnits="userSpaceOnUse">
  <stop stop-color="#fff" offset="0"/>
  <stop stop-color="#edf7ff" offset=".143"/>
  <stop stop-color="#e0f2ff" offset=".28"/>
  <stop stop-color="#e3f3ff" offset=".306"/>
  <stop stop-color="#f3faff" offset=".494"/>
  <stop stop-color="#fcfeff" offset=".708"/>
  <stop stop-color="#fff" offset="1"/>
 </linearGradient>
 <linearGradient id="b" gradientUnits="userSpaceOnUse">
  <stop stop-color="#524ac9" offset="0"/>
  <stop stop-color="#5855bc" offset=".096"/>
  <stop stop-color="#5d60af" offset=".235"/>
  <stop stop-color="#5f64ab" offset=".368"/>
  <stop stop-color="#190c7f" offset=".725"/>
 </linearGradient>
 <linearGradient id="k" x1="-160.04" x2="-160.04" y1="-726.62" y2="-729.13" gradientTransform="scale(1 -1) rotate(11.584 -3330.1 655.27)" xlink:href="#b"/>
 <linearGradient id="l" x1="-915.77" x2="-915.77" y1="-785.94" y2="-789.16" gradientTransform="scale(1 -1) rotate(49.067 -1231.7 668.97)" xlink:href="#b"/>
 <linearGradient id="m" x1="62.41" x2="62.41" y1="-595" y2="-603.19" gradientTransform="matrix(1 0 0 -1 0 -538)" gradientUnits="userSpaceOnUse">
  <stop stop-color="#8ba4d6" offset="0"/>
  <stop stop-color="#1b3ea6" offset="1"/>
 </linearGradient>
 <linearGradient id="Grunb" x1="42.99" x2="22.01" y1="7.01" y2="51.99" gradientUnits="userSpaceOnUse">
  <stop stop-color="#c4febc" offset="0"/>
  <stop stop-color="#69d467" offset="1"/>
 </linearGradient>
 <linearGradient id="Grunc" x1="55.45" x2="9.55" y1="42.75" y2="16.25" gradientUnits="userSpaceOnUse">
  <stop stop-color="#35a730" offset="0"/>
  <stop stop-color="#5cc65a" offset="1"/>
 </linearGradient>
 <radialGradient id="n" cx="61.37" cy="-595.29" r="7.57" gradientTransform="matrix(1 0 0 -1 0 -538)" gradientUnits="userSpaceOnUse">
  <stop stop-color="#fff" offset="0"/>
  <stop stop-color="#f6faff" offset=".051"/>
  <stop stop-color="#def" offset=".136"/>
  <stop stop-color="#b5d9ff" offset=".243"/>
  <stop stop-color="#7dbdff" offset=".369"/>
  <stop stop-color="#3699ff" offset=".508"/>
  <stop stop-color="#1487ff" offset=".571"/>
  <stop stop-color="#0f85ff" offset=".813"/>
  <stop stop-color="#3397ff" offset=".967"/>
 </radialGradient>
 <circle transform="translate(-6.44 -2.96) scale(1.1616)" cx="32.5" cy="29.5" r="26.5" fill="url(#c)"/>
 <circle transform="translate(-4.15 -4.15) scale(1.0909)" cx="31" cy="31" r="25.8" fill="url(#Grunb)" stroke="url(#Grunc)" stroke-width="2"/>
 <circle transform="translate(.092 -.155) scale(.4793)" cx="61.83" cy="62.17" r="53" fill="url(#Grunc)"/>
 <circle cx="29.631" cy="29.504" r="24.626" fill="url(#Grunb)"/>
 <circle transform="translate(.092 -.155) scale(.4793)" cx="61.63" cy="63.88" r="51.38" clip-path="url(#g)" fill="url(#h)"/>
 <path transform="translate(.092 -.155) scale(.4793)" d="m107.83 41.92-44.33 20.58-1.88 52.75c-28.37 0-51.38-23-51.38-51.38s23-51.38 51.38-51.38c20.93 0 38.2 11.46 46.21 29.42z" clip-path="url(#i)" fill="url(#j)" opacity=".15"/>
 <g fill="#35a730">
  <path d="m34.065 9.0334c-0.2972 0-0.5416-0.2444-0.54161-0.54161s0.2444-0.5416 0.54161-0.54161 0.5416 0.2444 0.54161 0.54161-0.2444 0.5416-0.54161 0.54161z"/>
  <path d="m31.745 8.7506c-0.2972 0-0.5416-0.2396-0.54161-0.53682s0.2396-0.5416 0.54161-0.54161c0.2972 0 0.5368 0.2396 0.53682 0.54161 0 0.2972-0.2396 0.5368-0.53682 0.53682z"/>
  <path d="m36.26 9.6517c-0.2972 0-0.5416-0.2444-0.54161-0.54161s0.2444-0.5416 0.54161-0.54161 0.5416 0.2444 0.54161 0.54161-0.2444 0.5416-0.54161 0.54161z"/>
  <path d="m38.259 10.428c-0.2972 0-0.5416-0.2444-0.54161-0.54161s0.2444-0.5416 0.54161-0.54161 0.5416 0.2444 0.54161 0.54161-0.2444 0.5416-0.54161 0.54161z"/>
  <path d="m42.232 12.628c-0.2972 0-0.5416-0.2444-0.54161-0.54161s0.2444-0.5368 0.54161-0.53682 0.5416 0.2444 0.54161 0.53682c0 0.2972-0.2444 0.5416-0.54161 0.54161z"/>
  <path d="m45.625 15.724c-0.2972 0-0.5416-0.2444-0.54161-0.54161s0.2444-0.5416 0.54161-0.54161 0.5416 0.2444 0.54161 0.54161-0.2444 0.5416-0.54161 0.54161z"/>
  <path d="m47.044 17.479c-0.2972 0-0.5416-0.2444-0.54161-0.54161s0.2444-0.5416 0.54161-0.54161 0.5416 0.2444 0.54161 0.54161-0.2444 0.5416-0.54161 0.54161z"/>
  <path d="m49.383 21.495c-0.2972 0-0.5368-0.2396-0.53682-0.53682s0.2396-0.5416 0.53682-0.54161 0.5416 0.2396 0.54161 0.54161c0 0.2972-0.2444 0.5368-0.54161 0.53682z"/>
  <path d="m50.198 23.532c-0.2972 0-0.5416-0.2396-0.54161-0.54161 0-0.2972 0.2396-0.5368 0.54161-0.53682 0.2972 0 0.5368 0.2396 0.53682 0.53682s-0.2396 0.5416-0.53682 0.54161z"/>
  <path d="m50.677 25.588c-0.2972 0-0.5416-0.2396-0.54161-0.54161 0-0.2972 0.2396-0.5416 0.54161-0.54161 0.2972 0 0.5368 0.2396 0.53682 0.54161 0 0.2972-0.2396 0.5416-0.53682 0.54161z"/>
  <path d="m51.137 27.923c-0.2972 0-0.5416-0.2396-0.54161-0.54161s0.2444-0.5416 0.54161-0.54161 0.5368 0.2396 0.53682 0.54161-0.2396 0.5416-0.53682 0.54161z"/>
  <path d="m51.099 32.476c-0.2972 0-0.5416-0.2444-0.54161-0.54161s0.2444-0.5368 0.54161-0.53682 0.5368 0.2396 0.53682 0.53682-0.2396 0.5416-0.53682 0.54161z"/>
  <path d="m50.696 34.695c-0.2972 0-0.5368-0.2444-0.53682-0.54161s0.2396-0.5368 0.53682-0.53682 0.5416 0.2396 0.54161 0.53682-0.2396 0.5416-0.54161 0.54161z"/>
  <path d="m50.14 36.972c-0.2972 0-0.5368-0.2396-0.53682-0.54161 0-0.2972 0.2396-0.5416 0.53682-0.54161s0.5416 0.2444 0.54161 0.54161-0.2444 0.5416-0.54161 0.54161z"/>
  <path d="m49.182 39.009c-0.2972 0-0.5368-0.2396-0.53682-0.53682s0.2396-0.5416 0.53682-0.54161 0.5416 0.2396 0.54161 0.54161c0 0.2972-0.2396 0.5368-0.54161 0.53682z"/>
  <path d="m47.044 43.001c-0.2972 0-0.5416-0.2444-0.54161-0.54161s0.2444-0.5416 0.54161-0.54161 0.5416 0.2444 0.54161 0.54161-0.2444 0.5416-0.54161 0.54161z"/>
  <path d="m45.587 44.76c-0.2972 0-0.5416-0.2444-0.54161-0.54161s0.2444-0.5416 0.54161-0.54161 0.5416 0.2444 0.54161 0.54161-0.2444 0.5416-0.54161 0.54161z"/>
  <path d="m44.01 46.337c-0.2972 0-0.5416-0.2444-0.54161-0.54161s0.2444-0.5416 0.54161-0.54161 0.5416 0.2444 0.54161 0.54161-0.2444 0.5416-0.54161 0.54161z"/>
  <path d="m42.27 47.794c-0.2972 0-0.5368-0.2396-0.53682-0.53682s0.2396-0.5416 0.53682-0.54161 0.5416 0.2444 0.54161 0.54161-0.2444 0.5368-0.54161 0.53682z"/>
  <path d="m38.22 50.033c-0.2972 0-0.5416-0.2444-0.54161-0.54161s0.2444-0.5368 0.54161-0.53682 0.5368 0.2444 0.53682 0.53682c0 0.2972-0.2444 0.5416-0.53682 0.54161z"/>
  <path d="m36.222 50.929c-0.2972 0-0.5416-0.2444-0.54161-0.54161s0.2444-0.5368 0.54161-0.53682 0.5368 0.2396 0.53682 0.53682-0.2396 0.5416-0.53682 0.54161z"/>
  <path d="m33.921 51.427c-0.2972 0-0.5368-0.2396-0.53682-0.53682s0.2396-0.5416 0.53682-0.54161 0.5368 0.2444 0.53682 0.54161-0.2396 0.5368-0.53682 0.53682z"/>
  <path d="m31.769 51.868c-0.2972 0-0.5416-0.2396-0.54161-0.54161 0-0.2972 0.2444-0.5368 0.54161-0.53682s0.5368 0.2396 0.53682 0.53682-0.2396 0.5416-0.53682 0.54161z"/>
  <path d="m24.795 9.0334c-0.2972 0-0.5416-0.2444-0.54161-0.54161s0.2444-0.5416 0.54161-0.54161 0.5416 0.2444 0.54161 0.54161-0.2396 0.5416-0.54161 0.54161z"/>
  <path d="m27.115 8.7506c-0.2972 0-0.5416-0.2396-0.54161-0.53682s0.2444-0.5368 0.54161-0.53682 0.5368 0.2396 0.53682 0.53682-0.2396 0.5368-0.53682 0.53682z"/>
  <path d="m22.6 9.6517c-0.2972 0-0.5416-0.2444-0.54161-0.54161s0.2396-0.5416 0.54161-0.54161c0.2972 0 0.5416 0.2444 0.54161 0.54161s-0.2444 0.5416-0.54161 0.54161z"/>
  <path d="m20.601 10.428c-0.2972 0-0.5368-0.2444-0.53682-0.54161s0.2396-0.5368 0.53682-0.53682 0.5416 0.2396 0.54161 0.53682-0.2444 0.5416-0.54161 0.54161z"/>
  <path d="m16.628 12.628c-0.2972 0-0.5416-0.2396-0.54161-0.54161s0.2396-0.5416 0.54161-0.54161 0.5416 0.2396 0.54161 0.54161-0.2396 0.5416-0.54161 0.54161z"/>
  <path d="m13.234 15.724c-0.2972 0-0.5416-0.2444-0.54161-0.54161s0.2444-0.5416 0.54161-0.54161 0.5416 0.2396 0.54161 0.54161-0.2396 0.5416-0.54161 0.54161z"/>
  <path d="m14.941 14.076c-0.2972 0-0.5416-0.2444-0.54161-0.54161s0.2396-0.5416 0.54161-0.54161 0.5368 0.2396 0.53682 0.54161-0.2396 0.5416-0.53682 0.54161z"/>
  <path d="m11.816 17.479c-0.2972 0-0.5368-0.2396-0.53682-0.54161s0.2396-0.5416 0.53682-0.54161 0.5416 0.2396 0.54161 0.54161-0.2396 0.5416-0.54161 0.54161z"/>
  <path d="m9.4766 21.495c-0.2972 0-0.5416-0.2396-0.54161-0.54161 0-0.2972 0.2444-0.5416 0.54161-0.54161s0.5416 0.2444 0.54161 0.54161-0.2444 0.5416-0.54161 0.54161z"/>
  <path d="m8.6618 23.532c-0.2972 0-0.5416-0.2444-0.54161-0.54161s0.2444-0.5416 0.54161-0.54161 0.5416 0.2444 0.54161 0.54161-0.2444 0.5416-0.54161 0.54161z"/>
  <path d="m8.1825 25.588c-0.2972 0-0.5416-0.2444-0.54161-0.54161s0.2444-0.5368 0.54161-0.53682 0.5368 0.2396 0.53682 0.53682-0.2396 0.5416-0.53682 0.54161z"/>
  <path d="m7.7224 27.923c-0.2972 0-0.5368-0.2444-0.53682-0.54161s0.2396-0.5368 0.53682-0.53682 0.5368 0.2396 0.53682 0.53682-0.2396 0.5416-0.53682 0.54161z"/>
  <path d="m7.7607 32.476c-0.2972 0-0.5368-0.2444-0.53682-0.53682 0-0.2972 0.2396-0.5416 0.53682-0.54161s0.5416 0.2396 0.54161 0.54161c0 0.2972-0.2396 0.5368-0.54161 0.53682z"/>
  <path d="m8.1586 34.695c-0.2972 0-0.5416-0.2444-0.54161-0.54161s0.2444-0.5416 0.54161-0.54161 0.5416 0.2444 0.54161 0.54161-0.2444 0.5416-0.54161 0.54161z"/>
  <path d="m8.7193 36.972c-0.2972 0-0.5416-0.2444-0.54161-0.54161s0.2444-0.5368 0.54161-0.53682 0.5416 0.2444 0.54161 0.53682c0 0.2972-0.2444 0.5416-0.54161 0.54161z"/>
  <path d="m9.6779 39.009c-0.2972 0-0.5416-0.2396-0.54161-0.54161 0-0.2972 0.2444-0.5416 0.54161-0.54161s0.5416 0.2444 0.54161 0.54161-0.2444 0.5416-0.54161 0.54161z"/>
  <path d="m11.816 43.001c-0.2972 0-0.5368-0.2444-0.53682-0.54161s0.2444-0.5416 0.53682-0.54161c0.2972 0 0.5416 0.2444 0.54161 0.54161s-0.2444 0.5416-0.54161 0.54161z"/>
  <path d="m13.273 44.76c-0.2972 0-0.5416-0.2444-0.54161-0.54161s0.2444-0.5416 0.54161-0.54161 0.5416 0.2444 0.54161 0.54161-0.2444 0.5416-0.54161 0.54161z"/>
  <path d="m14.85 46.337c-0.2972 0-0.5416-0.2444-0.54161-0.54161s0.2444-0.5416 0.54161-0.54161 0.5416 0.2444 0.54161 0.54161-0.2444 0.5416-0.54161 0.54161z"/>
  <path d="m16.589 47.794c-0.2972 0-0.5416-0.2396-0.54161-0.53682s0.2444-0.5416 0.54161-0.54161 0.5368 0.2444 0.53682 0.54161-0.2396 0.5368-0.53682 0.53682z"/>
  <path d="m20.644 50.033c-0.2972 0-0.5368-0.2444-0.53682-0.54161s0.2396-0.5368 0.53682-0.53682 0.5368 0.2444 0.53682 0.53682c0 0.2972-0.2396 0.5416-0.53682 0.54161z"/>
  <path d="m22.638 50.929c-0.2972 0-0.5416-0.2444-0.54161-0.54161s0.2396-0.5368 0.54161-0.53682c0.2972 0 0.5416 0.2396 0.54161 0.53682s-0.2396 0.5416-0.54161 0.54161z"/>
  <path d="m24.934 51.427c-0.2972 0-0.5416-0.2396-0.54161-0.53682s0.2396-0.5416 0.54161-0.54161 0.5416 0.2444 0.54161 0.54161-0.2396 0.5368-0.54161 0.53682z"/>
  <path d="m27.091 51.868c-0.2972 0-0.5416-0.2396-0.54161-0.54161 0-0.2972 0.2396-0.5368 0.54161-0.53682s0.5416 0.2396 0.54161 0.53682-0.2444 0.5416-0.54161 0.54161z"/>
  <path transform="translate(.092 -.155) scale(.4793)" d="m60.87 111.25v-8.63h2.01v8.63z"/>
  <path transform="translate(.092 -.155) scale(.4793)" d="m60.87 21.46v-8.96h2v8.96z"/>
  <path transform="translate(.092 -.155) scale(.4793)" d="m102.4 63.1v-2h8.62v2z"/>
  <path transform="translate(.092 -.155) scale(.4793)" d="m12.73 63.1v-2h8.62v2z"/>
  <path d="m12.726 20.163 0.41699-0.72854-3.7146-2.1233-0.41699 0.72854 0.15817 0.091067 3.5612 2.037zm4.8218-10.957 0.091067 0.15338 2.0514 3.5516 0.72854-0.42178-2.1425-3.705-0.72374 0.42178zm0 40.664 0.15338 0.091067 0.57037 0.33072 2.1233-3.7194-0.72854-0.41699-2.1233 3.7146zm-8.5267-8.8527 0.091067 0.15817 0.33072 0.57037 3.7098-2.1425-0.42178-0.72854-3.705 2.1473zm37.663-20.854 3.7194-2.1233-0.41699-0.72854-3.7146 2.1281 0.091067 0.15817 0.32592 0.57037zm-6.9642-7.2518 2.1425-3.7098-0.72854-0.41699-2.1425 3.705 0.15338 0.091067 0.57037 0.33072zm-0.70936 33.656 0.091067 0.15817 2.037 3.5612 0.72854-0.41699-2.1233-3.7194-0.72854 0.41699zm7.2518-6.9642 0.15338 0.091067 3.5516 2.0514 0.42178-0.72854-3.7098-2.1425z"/>
 </g>
 <path d="m30.254 26.025c0.2349 0.4745 0.04314 1.05-0.43137 1.2845l-1.0017 0.49847c-0.4745 0.2349-1.05 0.04314-1.2845-0.43137l-2.569-5.1477c-0.2349-0.4745-0.04314-1.05 0.43137-1.2845l1.0017-0.49847c0.4745-0.2349 1.05-0.04314 1.2845 0.43137z" fill="#5ff6ff" stroke="#5ff6ff" stroke-width=".479"/>
 <path d="m29.032 26.878 11.441 23.174" fill="none" stroke="#5ff6ff" stroke-linecap="round" stroke-linejoin="round" stroke-width=".959"/>
 <path transform="translate(.092 -.155) scale(.4793)" d="m69.03 59.99c.18.88-.39 1.74-1.27 1.92l-28.56 5.88c-.88.18-1.74-.39-1.92-1.27s.39-1.74 1.26-1.92l28.56-5.88c.88-.18 1.74.39 1.92 1.27z" fill="url(#k)"/>
 <path transform="translate(.092 -.155) scale(.4793)" d="m93.37 26.62c.42.36.46.99.1 1.41l-33.46 39.12c-.36.42-.99.46-1.41.1l-.76-.66c-.42-.36-.46-.99-.1-1.41l33.46-39.12c.36-.42.99-.46 1.41-.1z" fill="url(#l)"/>
 <circle transform="translate(.092 -.155) scale(.4793)" cx="62.41" cy="61.28" r="4.47" fill="url(#m)"/>
 <circle transform="translate(.092 -.155) scale(.4793)" cx="62.37" cy="61.29" r="3.75" fill="url(#n)"/>
 <path d="m188.38 80.9c0 5.53-12.76 10.02-28.5 10.02s-28.5-4.49-28.5-10.02 12.76-10.02 28.5-10.02 28.5 4.49 28.5 10.02z" fill="none" opacity=".1"/>
</svg>
